<svg xmlns="http://www.w3.org/2000/svg" viewBox="0 0 64 64" fill="none">
  <!-- Envelope -->
  <rect x="4" y="16" width="36" height="28" rx="3" fill="#1e5fa8"/>
  <path d="M4 19 L22 33 L40 19" stroke="#ffffff" stroke-width="2.5" stroke-linecap="round" stroke-linejoin="round" fill="none"/>
  <path d="M4 44 L18 30 M40 44 L26 30" stroke="#ffffff" stroke-width="1.5" stroke-linecap="round" opacity="0.6"/>
  <!-- Magnifying glass lens -->
  <circle cx="42" cy="30" r="15" fill="#bfe0ff" stroke="#2b8fe0" stroke-width="3"/>
  <circle cx="42" cy="30" r="11" fill="#e6f2fb" opacity="0.55"/>
  <!-- @ symbol -->
  <g stroke="#2b8fe0" stroke-width="2" fill="none" stroke-linecap="round">
    <circle cx="42" cy="30" r="3.2"/>
    <path d="M45.2 30 v3 a2.5 2.5 0 0 0 4.6 -1.3 a8 8 0 1 0 -3 6"/>
  </g>
  <!-- Sparkles -->
  <path d="M52 19 l0.6 1.6 l1.6 0.6 l-1.6 0.6 l-0.6 1.6 l-0.6 -1.6 l-1.6 -0.6 l1.6 -0.6 z" fill="#ffffff"/>
  <path d="M49 25 l0.4 1 l1 0.4 l-1 0.4 l-0.4 1 l-0.4 -1 l-1 -0.4 l1 -0.4 z" fill="#ffffff"/>
  <!-- Handle -->
  <rect x="52" y="40" width="10" height="4" rx="2" transform="rotate(45 52 40)" fill="#2b8fe0"/>
</svg>
